<?xml version="1.0" encoding="UTF-8"?>
<!DOCTYPE svg PUBLIC "-//W3C//DTD SVG 1.1//EN" "http://www.w3.org/Graphics/SVG/1.1/DTD/svg11.dtd">
<svg xmlns="http://www.w3.org/2000/svg" version="1.1" width="623px" height="400px" style="shape-rendering:geometricPrecision; text-rendering:geometricPrecision; image-rendering:optimizeQuality; fill-rule:evenodd; clip-rule:evenodd" xmlns:xlink="http://www.w3.org/1999/xlink">
<g><path style="opacity:1" fill="#f2f2f2" d="M 223.5,169.5 C 223.427,171.027 224.094,172.027 225.5,172.5C 229.272,176.371 231.772,181.038 233,186.5C 235.724,199.565 234.391,212.232 229,224.5C 226.113,231.942 222.446,238.942 218,245.5C 218.272,250.788 218.439,256.122 218.5,261.5C 207.112,259.799 196.778,262.299 187.5,269C 184,271.669 180.667,274.502 177.5,277.5C 176.222,277.218 175.222,276.551 174.5,275.5C 174.672,274.508 174.338,273.842 173.5,273.5C 173.167,272.167 172.833,270.833 172.5,269.5C 170.007,267.416 167.34,267.083 164.5,268.5C 158.066,270.29 151.4,270.79 144.5,270C 142.667,269.5 141.5,268.333 141,266.5C 140.502,263.183 140.335,259.85 140.5,256.5C 140.5,254.5 139.5,253.5 137.5,253.5C 137.784,251.585 137.451,249.919 136.5,248.5C 135.504,248.586 134.671,248.252 134,247.5C 134,244.167 134,240.833 134,237.5C 131.537,236.968 129.703,235.634 128.5,233.5C 128.5,232.167 128.5,230.833 128.5,229.5C 128.328,228.508 128.662,227.842 129.5,227.5C 130.906,227.027 131.573,226.027 131.5,224.5C 131.66,222.847 132.326,221.514 133.5,220.5C 134.845,217.949 135.511,215.116 135.5,212C 133.922,201.405 134.255,190.905 136.5,180.5C 137.998,175.678 140.664,171.678 144.5,168.5C 146.167,167.5 147.5,166.167 148.5,164.5C 155.506,158.095 163.839,154.261 173.5,153C 187.282,151.029 200.282,153.363 212.5,160C 216.949,162.284 220.616,165.451 223.5,169.5 Z M 188.5,170.5 C 188.783,171.289 189.283,171.956 190,172.5C 191.011,171.663 192.178,171.33 193.5,171.5C 193.833,171.5 194.167,171.5 194.5,171.5C 195.261,172.391 196.261,173.058 197.5,173.5C 199.071,172.691 200.738,172.357 202.5,172.5C 203.172,173.267 204.005,173.934 205,174.5C 205.399,174.272 205.565,173.938 205.5,173.5C 206.964,174.405 208.298,174.405 209.5,173.5C 213.43,175.759 216.763,178.759 219.5,182.5C 219.932,183.71 220.599,184.71 221.5,185.5C 221.157,187.483 221.824,188.817 223.5,189.5C 224.693,193.647 225.693,197.814 226.5,202C 226.42,204.554 225.086,206.054 222.5,206.5C 221.619,209.13 220.952,211.797 220.5,214.5C 219.624,214.369 218.957,214.702 218.5,215.5C 219.246,216.736 219.579,218.07 219.5,219.5C 217.4,222.104 215.067,224.604 212.5,227C 208.218,229.387 204.051,231.887 200,234.5C 198.929,238.204 198.762,241.871 199.5,245.5C 199.043,246.298 198.376,246.631 197.5,246.5C 197.946,243.99 197.28,241.99 195.5,240.5C 195.293,237.759 194.293,235.426 192.5,233.5C 192.573,231.973 191.906,230.973 190.5,230.5C 190.573,228.973 189.906,227.973 188.5,227.5C 187.738,225.738 186.404,224.738 184.5,224.5C 180.833,221.833 177.167,221.833 173.5,224.5C 172.5,224.5 171.5,224.5 170.5,224.5C 169.71,223.599 168.71,222.932 167.5,222.5C 167.167,221.5 166.5,220.833 165.5,220.5C 165.573,218.973 164.906,217.973 163.5,217.5C 163.443,216.391 163.11,215.391 162.5,214.5C 162.629,212.784 162.962,211.117 163.5,209.5C 159.93,211.366 156.263,211.7 152.5,210.5C 151.206,209.71 150.039,208.71 149,207.5C 149.667,202.833 149.667,198.167 149,193.5C 151.228,188.445 154.395,184.111 158.5,180.5C 159.537,179.07 160.204,177.403 160.5,175.5C 162.347,171.999 164.68,171.665 167.5,174.5C 168.075,171.644 169.741,169.977 172.5,169.5C 177.887,170.003 183.22,170.336 188.5,170.5 Z"/></g>
<g><path style="opacity:0.686" fill="#818181" d="M 148.5,164.5 C 147.5,166.167 146.167,167.5 144.5,168.5C 144.833,166.167 146.167,164.833 148.5,164.5 Z"/></g>
<g><path style="opacity:0.999" fill="#f5f5f5" d="M 416.5,192.5 C 417.262,190.738 418.596,189.738 420.5,189.5C 426.464,188.693 432.464,188.36 438.5,188.5C 446.986,190.32 452.652,195.32 455.5,203.5C 455.41,206.152 456.076,208.485 457.5,210.5C 458.775,213.604 458.775,216.604 457.5,219.5C 456.549,220.919 456.216,222.585 456.5,224.5C 451.558,239.317 441.225,245.484 425.5,243C 421.89,242.528 418.89,241.028 416.5,238.5C 416.44,237.957 416.107,237.624 415.5,237.5C 414.571,238.689 414.238,240.022 414.5,241.5C 409.833,241.5 405.167,241.5 400.5,241.5C 400.5,217.5 400.5,193.5 400.5,169.5C 405.167,169.5 409.833,169.5 414.5,169.5C 414.169,177.528 414.502,185.528 415.5,193.5C 416.107,193.376 416.44,193.043 416.5,192.5 Z M 436.5,202.5 C 437.167,203.833 438.167,204.833 439.5,205.5C 439.932,206.71 440.599,207.71 441.5,208.5C 442.244,212.119 442.577,215.785 442.5,219.5C 439.029,227.919 432.696,231.253 423.5,229.5C 422.71,228.599 421.71,227.932 420.5,227.5C 418.833,226.5 417.5,225.167 416.5,223.5C 416.204,221.597 415.537,219.93 414.5,218.5C 414.849,203.478 422.183,198.145 436.5,202.5 Z"/></g>
<g><path style="opacity:0.282" fill="#535353" d="M 188.5,170.5 C 190.415,170.216 192.081,170.549 193.5,171.5C 192.178,171.33 191.011,171.663 190,172.5C 189.283,171.956 188.783,171.289 188.5,170.5 Z"/></g>
<g><path style="opacity:0.765" fill="#7e7e7e" d="M 223.5,169.5 C 224.906,169.973 225.573,170.973 225.5,172.5C 224.094,172.027 223.427,171.027 223.5,169.5 Z"/></g>
<g><path style="opacity:0.27" fill="#434343" d="M 416.5,192.5 C 416.44,193.043 416.107,193.376 415.5,193.5C 414.502,185.528 414.169,177.528 414.5,169.5C 409.833,169.5 405.167,169.5 400.5,169.5C 400.5,193.5 400.5,217.5 400.5,241.5C 400.5,241.833 400.5,242.167 400.5,242.5C 399.502,218.006 399.169,193.339 399.5,168.5C 404.833,168.5 410.167,168.5 415.5,168.5C 415.949,176.972 416.282,184.972 416.5,192.5 Z"/></g>
<g><path style="opacity:0.963" fill="#a4a4a4" d="M 194.5,171.5 C 197.385,171.194 200.052,171.527 202.5,172.5C 200.738,172.357 199.071,172.691 197.5,173.5C 196.261,173.058 195.261,172.391 194.5,171.5 Z"/></g>
<g><path style="opacity:0.333" fill="#626262" d="M 205.5,173.5 C 206.833,172.167 208.167,172.167 209.5,173.5C 208.298,174.405 206.964,174.405 205.5,173.5 Z"/></g>
<g><path style="opacity:0.627" fill="#797979" d="M 160.5,175.5 C 160.204,177.403 159.537,179.07 158.5,180.5C 158.12,178.302 158.787,176.635 160.5,175.5 Z"/></g>
<g><path style="opacity:0.839" fill="#777777" d="M 219.5,182.5 C 221.048,182.821 221.715,183.821 221.5,185.5C 220.599,184.71 219.932,183.71 219.5,182.5 Z"/></g>
<g><path style="opacity:0.4" fill="#676767" d="M 221.5,185.5 C 222.345,186.671 223.011,188.005 223.5,189.5C 221.824,188.817 221.157,187.483 221.5,185.5 Z"/></g>
<g><path style="opacity:0.596" fill="#808080" d="M 297.5,189.5 C 289.751,188.045 282.084,188.378 274.5,190.5C 278.57,188.111 283.07,187.111 288,187.5C 290.5,187.667 293,187.833 295.5,188C 296.416,188.278 297.082,188.778 297.5,189.5 Z"/></g>
<g><path style="opacity:0.747" fill="#959595" d="M 365.5,189.5 C 357.751,188.045 350.084,188.378 342.5,190.5C 346.363,188.05 350.697,187.05 355.5,187.5C 358.167,187.667 360.833,187.833 363.5,188C 364.416,188.278 365.082,188.778 365.5,189.5 Z"/></g>
<g><path style="opacity:1" fill="#f2f2f2" d="M 297.5,189.5 C 299.17,189.751 300.67,190.418 302,191.5C 302.464,190.906 302.631,190.239 302.5,189.5C 302.833,189.5 303.167,189.5 303.5,189.5C 307.833,189.5 312.167,189.5 316.5,189.5C 316.5,207.833 316.5,226.167 316.5,244.5C 314.835,252.999 309.835,258.499 301.5,261C 291.096,263.497 281.096,262.664 271.5,258.5C 271.027,257.094 270.027,256.427 268.5,256.5C 267.508,256.672 266.842,256.338 266.5,255.5C 265.89,254.609 265.557,253.609 265.5,252.5C 266.934,249.953 268.6,247.619 270.5,245.5C 271.391,244.89 272.391,244.557 273.5,244.5C 273.833,244.5 274.167,244.5 274.5,244.5C 274.821,246.048 275.821,246.715 277.5,246.5C 285.21,249.497 292.71,249.164 300,245.5C 302.939,239.483 301.773,237.817 296.5,240.5C 289.017,240.909 281.684,240.242 274.5,238.5C 274.027,237.094 273.027,236.427 271.5,236.5C 266.008,233.859 262.675,229.526 261.5,223.5C 260.771,218.87 260.437,214.203 260.5,209.5C 261.924,207.485 262.59,205.152 262.5,202.5C 264.833,196.833 268.833,192.833 274.5,190.5C 282.084,188.378 289.751,188.045 297.5,189.5 Z M 291.5,200.5 C 292.93,201.537 294.597,202.204 296.5,202.5C 296.973,203.906 297.973,204.573 299.5,204.5C 302.599,209.809 303.265,215.476 301.5,221.5C 300.094,221.973 299.427,222.973 299.5,224.5C 298.29,224.932 297.29,225.599 296.5,226.5C 294.302,226.875 292.302,227.542 290.5,228.5C 284.442,228.804 279.775,226.471 276.5,221.5C 276.125,219.302 275.458,217.302 274.5,215.5C 275.488,205.178 281.155,200.178 291.5,200.5 Z"/></g>
<g><path style="opacity:0.298" fill="#303030" d="M 304.5,188.5 C 303.833,188.5 303.5,188.833 303.5,189.5C 303.167,189.5 302.833,189.5 302.5,189.5C 301.262,189.19 301.262,188.69 302.5,188C 303.437,187.308 304.103,187.475 304.5,188.5 Z"/></g>
<g><path style="opacity:1" fill="#f3f3f3" d="M 365.5,189.5 C 367.674,189.75 369.341,190.75 370.5,192.5C 370.56,193.043 370.893,193.376 371.5,193.5C 372.429,192.311 372.762,190.978 372.5,189.5C 376.833,189.5 381.167,189.5 385.5,189.5C 385.5,206.833 385.5,224.167 385.5,241.5C 381.167,241.5 376.833,241.5 372.5,241.5C 372.762,240.022 372.429,238.689 371.5,237.5C 370.893,237.624 370.56,237.957 370.5,238.5C 360.459,244.985 350.126,245.152 339.5,239C 330.468,231.243 326.968,221.409 329,209.5C 329.97,202.218 333.47,196.551 339.5,192.5C 341.027,192.573 342.027,191.906 342.5,190.5C 350.084,188.378 357.751,188.045 365.5,189.5 Z M 365.5,202.5 C 365.973,203.906 366.973,204.573 368.5,204.5C 372.434,211.502 372.434,218.502 368.5,225.5C 367.148,226.524 365.815,227.524 364.5,228.5C 360.135,229.773 355.801,229.773 351.5,228.5C 350.395,227.4 349.062,226.733 347.5,226.5C 347.573,224.973 346.906,223.973 345.5,223.5C 341.316,206.018 347.983,199.018 365.5,202.5 Z"/></g>
<g><path style="opacity:0.773" fill="#888888" d="M 438.5,188.5 C 432.464,188.36 426.464,188.693 420.5,189.5C 423.695,187.97 427.195,187.304 431,187.5C 433.69,187.503 436.19,187.836 438.5,188.5 Z"/></g>
<g><path style="opacity:0.776" fill="#888888" d="M 500.5,188.5 C 494.464,188.36 488.464,188.693 482.5,189.5C 485.695,187.97 489.195,187.304 493,187.5C 495.69,187.503 498.19,187.836 500.5,188.5 Z"/></g>
<g><path style="opacity:1" fill="#f4f4f4" d="M 500.5,188.5 C 503.206,188.688 505.539,189.688 507.5,191.5C 507.783,192.289 508.283,192.956 509,193.5C 509.49,192.207 509.657,190.873 509.5,189.5C 514.167,189.5 518.833,189.5 523.5,189.5C 523.5,206.833 523.5,224.167 523.5,241.5C 518.833,241.5 514.167,241.5 509.5,241.5C 508.732,240.737 508.232,239.737 508,238.5C 501.961,243.141 495.127,244.641 487.5,243C 483.578,242.538 480.245,241.038 477.5,238.5C 477.027,237.094 476.027,236.427 474.5,236.5C 470.879,232.929 468.546,228.596 467.5,223.5C 467.347,217.131 467.68,210.797 468.5,204.5C 469.41,201.008 471.076,198.008 473.5,195.5C 475.404,195.262 476.738,194.262 477.5,192.5C 478.659,190.75 480.326,189.75 482.5,189.5C 488.464,188.693 494.464,188.36 500.5,188.5 Z M 502.5,228.5 C 498.566,229.36 494.566,229.693 490.5,229.5C 489.71,228.599 488.71,227.932 487.5,227.5C 479.558,219.376 479.558,211.21 487.5,203C 497.624,198.549 504.791,201.383 509,211.5C 510.456,218.643 508.289,224.31 502.5,228.5 Z"/></g>
<g><path style="opacity:0.098" fill="#252525" d="M 509.5,188.5 C 509.5,188.833 509.5,189.167 509.5,189.5C 509.657,190.873 509.49,192.207 509,193.5C 508.283,192.956 507.783,192.289 507.5,191.5C 506.984,190.242 507.65,189.242 509.5,188.5 Z"/></g>
<g><path style="opacity:0.356" fill="#707070" d="M 509.5,189.5 C 509.5,189.167 509.5,188.833 509.5,188.5C 514.5,188.5 519.5,188.5 524.5,188.5C 524.5,206.5 524.5,224.5 524.5,242.5C 519.305,242.821 514.305,242.487 509.5,241.5C 514.167,241.5 518.833,241.5 523.5,241.5C 523.5,224.167 523.5,206.833 523.5,189.5C 518.833,189.5 514.167,189.5 509.5,189.5 Z"/></g>
<g><path style="opacity:0.703" fill="#7f7f7f" d="M 303.5,189.5 C 303.5,188.833 303.833,188.5 304.5,188.5C 309.099,188.2 313.599,188.533 318,189.5C 318.311,204.038 318.478,218.538 318.5,233C 318.008,237.005 317.341,240.838 316.5,244.5C 316.5,226.167 316.5,207.833 316.5,189.5C 312.167,189.5 307.833,189.5 303.5,189.5 Z"/></g>
<g><path style="opacity:0.614" fill="#949494" d="M 370.5,238.5 C 370.56,237.957 370.893,237.624 371.5,237.5C 372.429,238.689 372.762,240.022 372.5,241.5C 376.833,241.5 381.167,241.5 385.5,241.5C 385.5,224.167 385.5,206.833 385.5,189.5C 381.167,189.5 376.833,189.5 372.5,189.5C 372.762,190.978 372.429,192.311 371.5,193.5C 370.893,193.376 370.56,193.043 370.5,192.5C 371.653,191.687 371.653,190.687 370.5,189.5C 376.209,188.577 381.876,188.077 387.5,188C 386.508,206.09 386.174,224.257 386.5,242.5C 381.489,242.666 376.489,242.499 371.5,242C 371.347,240.791 371.014,239.625 370.5,238.5 Z"/></g>
<g><path style="opacity:0.725" fill="#7b7b7b" d="M 342.5,190.5 C 342.027,191.906 341.027,192.573 339.5,192.5C 339.973,191.094 340.973,190.427 342.5,190.5 Z"/></g>
<g><path style="opacity:0.714" fill="#808080" d="M 477.5,192.5 C 476.738,194.262 475.404,195.262 473.5,195.5C 474.262,193.738 475.596,192.738 477.5,192.5 Z"/></g>
<g><path style="opacity:0.871" fill="#888888" d="M 291.5,200.5 C 293.698,200.12 295.365,200.787 296.5,202.5C 294.597,202.204 292.93,201.537 291.5,200.5 Z"/></g>
<g><path style="opacity:0.733" fill="#757575" d="M 296.5,202.5 C 298.027,202.427 299.027,203.094 299.5,204.5C 297.973,204.573 296.973,203.906 296.5,202.5 Z"/></g>
<g><path style="opacity:0.812" fill="#888888" d="M 365.5,202.5 C 367.027,202.427 368.027,203.094 368.5,204.5C 366.973,204.573 365.973,203.906 365.5,202.5 Z"/></g>
<g><path style="opacity:0.827" fill="#787878" d="M 436.5,202.5 C 438.5,202.5 439.5,203.5 439.5,205.5C 438.167,204.833 437.167,203.833 436.5,202.5 Z"/></g>
<g><path style="opacity:0.886" fill="#959595" d="M 262.5,202.5 C 262.59,205.152 261.924,207.485 260.5,209.5C 260.5,209.167 260.5,208.833 260.5,208.5C 260.595,206.214 261.262,204.214 262.5,202.5 Z"/></g>
<g><path style="opacity:0.882" fill="#7a7a7a" d="M 439.5,205.5 C 441.048,205.821 441.715,206.821 441.5,208.5C 440.599,207.71 439.932,206.71 439.5,205.5 Z"/></g>
<g><path style="opacity:0.529" fill="#787878" d="M 455.5,203.5 C 456.924,205.515 457.59,207.848 457.5,210.5C 456.076,208.485 455.41,206.152 455.5,203.5 Z"/></g>
<g><path style="opacity:0.573" fill="#7d7d7d" d="M 136.5,180.5 C 134.255,190.905 133.922,201.405 135.5,212C 135.511,215.116 134.845,217.949 133.5,220.5C 134.501,213.146 134.168,205.813 132.5,198.5C 133.11,194.514 133.61,190.514 134,186.5C 134.566,184.277 135.4,182.277 136.5,180.5 Z"/></g>
<g><path style="opacity:0.675" fill="#818181" d="M 163.5,209.5 C 162.962,211.117 162.629,212.784 162.5,214.5C 161.842,213.602 161.176,212.602 160.5,211.5C 157.516,212.965 154.849,212.631 152.5,210.5C 156.263,211.7 159.93,211.366 163.5,209.5 Z"/></g>
<g><path style="opacity:0.549" fill="#787878" d="M 468.5,204.5 C 467.68,210.797 467.347,217.131 467.5,223.5C 466.836,221.022 466.503,218.355 466.5,215.5C 466.294,211.531 466.961,207.865 468.5,204.5 Z"/></g>
<g><path style="opacity:0.239" fill="#474747" d="M 260.5,208.5 C 260.5,208.833 260.5,209.167 260.5,209.5C 260.437,214.203 260.771,218.87 261.5,223.5C 258.518,218.824 258.184,213.824 260.5,208.5 Z"/></g>
<g><path style="opacity:0.273" fill="#676767" d="M 441.5,208.5 C 442.997,210.29 443.664,212.456 443.5,215C 443.492,216.707 443.158,218.207 442.5,219.5C 442.577,215.785 442.244,212.119 441.5,208.5 Z"/></g>
<g><path style="opacity:0.494" fill="#545454" d="M 220.5,214.5 C 220.784,216.415 220.451,218.081 219.5,219.5C 219.579,218.07 219.246,216.736 218.5,215.5C 218.957,214.702 219.624,214.369 220.5,214.5 Z"/></g>
<g><path style="opacity:0.557" fill="#7a7a7a" d="M 163.5,217.5 C 164.906,217.973 165.573,218.973 165.5,220.5C 164.094,220.027 163.427,219.027 163.5,217.5 Z"/></g>
<g><path style="opacity:0.71" fill="#696969" d="M 274.5,215.5 C 275.458,217.302 276.125,219.302 276.5,221.5C 274.72,220.01 274.054,218.01 274.5,215.5 Z"/></g>
<g><path style="opacity:0.506" fill="#565656" d="M 457.5,219.5 C 458.872,221.477 458.538,223.144 456.5,224.5C 456.216,222.585 456.549,220.919 457.5,219.5 Z"/></g>
<g><path style="opacity:0.761" fill="#727272" d="M 414.5,218.5 C 415.537,219.93 416.204,221.597 416.5,223.5C 414.787,222.365 414.12,220.698 414.5,218.5 Z"/></g>
<g><path style="opacity:0.682" fill="#6e6e6e" d="M 301.5,221.5 C 301.573,223.027 300.906,224.027 299.5,224.5C 299.427,222.973 300.094,221.973 301.5,221.5 Z"/></g>
<g><path style="opacity:0.878" fill="#7a7a7a" d="M 167.5,222.5 C 168.71,222.932 169.71,223.599 170.5,224.5C 168.821,224.715 167.821,224.048 167.5,222.5 Z"/></g>
<g><path style="opacity:0.896" fill="#868686" d="M 184.5,224.5 C 180.833,224.5 177.167,224.5 173.5,224.5C 177.167,221.833 180.833,221.833 184.5,224.5 Z"/></g>
<g><path style="opacity:0.725" fill="#777777" d="M 345.5,223.5 C 346.906,223.973 347.573,224.973 347.5,226.5C 346.094,226.027 345.427,225.027 345.5,223.5 Z"/></g>
<g><path style="opacity:0.412" fill="#656565" d="M 131.5,224.5 C 131.573,226.027 130.906,227.027 129.5,227.5C 129.427,225.973 130.094,224.973 131.5,224.5 Z"/></g>
<g><path style="opacity:0.839" fill="#767676" d="M 296.5,226.5 C 295.01,228.28 293.01,228.946 290.5,228.5C 292.302,227.542 294.302,226.875 296.5,226.5 Z"/></g>
<g><path style="opacity:0.812" fill="#757575" d="M 420.5,227.5 C 421.71,227.932 422.71,228.599 423.5,229.5C 421.821,229.715 420.821,229.048 420.5,227.5 Z"/></g>
<g><path style="opacity:0.914" fill="#808080" d="M 487.5,227.5 C 488.71,227.932 489.71,228.599 490.5,229.5C 488.821,229.715 487.821,229.048 487.5,227.5 Z"/></g>
<g><path style="opacity:0.549" fill="#7e7e7e" d="M 188.5,227.5 C 189.906,227.973 190.573,228.973 190.5,230.5C 189.094,230.027 188.427,229.027 188.5,227.5 Z"/></g>
<g><path style="opacity:0.22" fill="#656565" d="M 351.5,228.5 C 355.801,229.773 360.135,229.773 364.5,228.5C 364.389,229.117 364.056,229.617 363.5,230C 361.5,230.167 359.5,230.333 357.5,230.5C 355.048,230.461 353.048,229.794 351.5,228.5 Z"/></g>
<g><path style="opacity:0.278" fill="#656565" d="M 502.5,228.5 C 502.389,229.117 502.056,229.617 501.5,230C 497.642,230.81 493.976,230.643 490.5,229.5C 494.566,229.693 498.566,229.36 502.5,228.5 Z"/></g>
<g><path style="opacity:0.192" fill="#262626" d="M 128.5,229.5 C 128.5,230.833 128.5,232.167 128.5,233.5C 126.219,232.366 126.219,231.032 128.5,229.5 Z"/></g>
<g><path style="opacity:0.486" fill="#787878" d="M 190.5,230.5 C 191.906,230.973 192.573,231.973 192.5,233.5C 191.094,233.027 190.427,232.027 190.5,230.5 Z"/></g>
<g><path style="opacity:0.475" fill="#7a7a7a" d="M 271.5,236.5 C 273.027,236.427 274.027,237.094 274.5,238.5C 272.973,238.573 271.973,237.906 271.5,236.5 Z"/></g>
<g><path style="opacity:0.447" fill="#626262" d="M 474.5,236.5 C 476.027,236.427 477.027,237.094 477.5,238.5C 475.973,238.573 474.973,237.906 474.5,236.5 Z"/></g>
<g><path style="opacity:0.627" fill="#717171" d="M 274.5,238.5 C 281.684,240.242 289.017,240.909 296.5,240.5C 295.003,241.306 293.336,241.972 291.5,242.5C 288.833,241.167 286.167,241.167 283.5,242.5C 280.231,241.531 277.231,240.198 274.5,238.5 Z"/></g>
<g><path style="opacity:0.02" fill="#2c2c2c" d="M 195.5,240.5 C 197.28,241.99 197.946,243.99 197.5,246.5C 196.542,244.698 195.875,242.698 195.5,240.5 Z"/></g>
<g><path style="opacity:0.428" fill="#707070" d="M 416.5,238.5 C 415.566,239.568 415.232,240.901 415.5,242.5C 410.5,242.5 405.5,242.5 400.5,242.5C 400.5,242.167 400.5,241.833 400.5,241.5C 405.167,241.5 409.833,241.5 414.5,241.5C 414.238,240.022 414.571,238.689 415.5,237.5C 416.107,237.624 416.44,237.957 416.5,238.5 Z"/></g>
<g><path style="opacity:0.482" fill="#4e4e4e" d="M 273.5,244.5 C 272.391,244.557 271.391,244.89 270.5,245.5C 270.987,242.285 271.987,241.952 273.5,244.5 Z"/></g>
<g><path style="opacity:0.784" fill="#656565" d="M 274.5,244.5 C 275.71,244.932 276.71,245.599 277.5,246.5C 275.821,246.715 274.821,246.048 274.5,244.5 Z"/></g>
<g><path style="opacity:0.455" fill="#505050" d="M 136.5,248.5 C 137.451,249.919 137.784,251.585 137.5,253.5C 135.462,252.144 135.128,250.477 136.5,248.5 Z"/></g>
<g><path style="opacity:0.788" fill="#717171" d="M 137.5,253.5 C 139.5,253.5 140.5,254.5 140.5,256.5C 139.167,255.833 138.167,254.833 137.5,253.5 Z"/></g>
<g><path style="opacity:0.243" fill="#373737" d="M 265.5,252.5 C 265.557,253.609 265.89,254.609 266.5,255.5C 264.448,254.947 264.115,253.947 265.5,252.5 Z"/></g>
<g><path style="opacity:0.337" fill="#616161" d="M 268.5,256.5 C 270.027,256.427 271.027,257.094 271.5,258.5C 269.973,258.573 268.973,257.906 268.5,256.5 Z"/></g>
<g><path style="opacity:0.525" fill="#828282" d="M 164.5,268.5 C 167.34,267.083 170.007,267.416 172.5,269.5C 169.873,268.908 167.206,268.575 164.5,268.5 Z"/></g>
<g><path style="opacity:0.314" fill="#383838" d="M 173.5,273.5 C 174.338,273.842 174.672,274.508 174.5,275.5C 172.895,274.994 172.561,274.327 173.5,273.5 Z"/></g>
<g><path style="opacity:0.318" fill="#4c4c4c" d="M 174.5,275.5 C 175.222,276.551 176.222,277.218 177.5,277.5C 176.791,278.404 175.791,278.737 174.5,278.5C 174.5,277.5 174.5,276.5 174.5,275.5 Z"/></g>
</svg>
